<svg width="180" height="180" viewBox="0 0 180 180" fill="none" xmlns="http://www.w3.org/2000/svg">
  <rect width="180" height="180" rx="36" fill="#0f5e59"/>
  <g transform="translate(20, 44) scale(1.167)">
    <rect x="3" y="21" width="30" height="21" rx="3.5" fill="white"/>
    <rect x="5" y="15" width="26" height="7" rx="3.5" fill="white"/>
    <line x1="18" y1="21" x2="18" y2="42" stroke="rgba(15,94,89,0.35)" stroke-width="1.3"/>
    <line x1="3" y1="31.5" x2="33" y2="31.5" stroke="rgba(15,94,89,0.35)" stroke-width="1.3"/>
    <line x1="33" y1="27" x2="51" y2="26" stroke="white" stroke-width="2.5" stroke-linecap="round"/>
    <line x1="33" y1="40" x2="28" y2="60" stroke="white" stroke-width="2.5" stroke-linecap="round"/>
    <line x1="51" y1="26" x2="55" y2="56" stroke="white" stroke-width="4" stroke-linecap="round"/>
    <line x1="51" y1="26" x2="80" y2="24" stroke="white" stroke-width="4" stroke-linecap="round"/>
    <line x1="80" y1="24" x2="55" y2="56" stroke="white" stroke-width="4" stroke-linecap="round"/>
    <line x1="55" y1="56" x2="28" y2="60" stroke="white" stroke-width="4" stroke-linecap="round"/>
    <line x1="51" y1="26" x2="28" y2="60" stroke="white" stroke-width="3" stroke-linecap="round"/>
    <line x1="80" y1="24" x2="90" y2="60" stroke="white" stroke-width="4" stroke-linecap="round"/>
    <rect x="41" y="19" width="22" height="7" rx="3.5" fill="white"/>
    <rect x="80" y="12" width="4" height="13" rx="2" fill="white"/>
    <rect x="76" y="10" width="16" height="4.5" rx="2.25" fill="white"/>
    <circle cx="28" cy="60" r="15" stroke="white" stroke-width="4.5"/>
    <circle cx="28" cy="60" r="4" fill="white"/>
    <circle cx="90" cy="60" r="15" stroke="white" stroke-width="4.5"/>
    <circle cx="90" cy="60" r="4" fill="white"/>
  </g>
</svg>
