<svg xmlns="http://www.w3.org/2000/svg" width="192" height="192">
  <rect width="192" height="192" fill="#1a5c3a"/>
  <g transform="translate(36, 56) scale(1.0)">
    
  <!-- Delivery box (front) -->
  <rect x="4" y="18" width="26" height="20" rx="3" fill="white"/>
  <line x1="17" y1="18" x2="17" y2="38" stroke="#1a5c3a" stroke-width="2"/>
  <line x1="4" y1="28" x2="30" y2="28" stroke="#1a5c3a" stroke-width="2"/>
  <!-- Body frame -->
  <path d="M28 34 Q36 18 52 16 L70 16 Q80 16 84 26 L87 34" stroke="white" stroke-width="5" fill="none" stroke-linecap="round" stroke-linejoin="round"/>
  <!-- Seat -->
  <rect x="46" y="9" width="26" height="9" rx="4.5" fill="white"/>
  <!-- Rear fender -->
  <path d="M26 36 Q28 44 34 47" stroke="white" stroke-width="4" fill="none" stroke-linecap="round"/>
  <!-- Front fork -->
  <path d="M87 34 L91 46" stroke="white" stroke-width="4" fill="none" stroke-linecap="round"/>
  <!-- Handlebar post -->
  <rect x="75" y="12" width="4" height="17" rx="2" fill="white"/>
  <!-- Handlebar -->
  <rect x="72" y="11" width="19" height="4.5" rx="2.25" fill="white"/>
  <!-- Lightning bolt (electric) -->
  <polygon points="64,6 58,15 63,15 57,24 68,13 62,13" fill="white" opacity="0.9"/>
  <!-- Back wheel -->
  <circle cx="28" cy="58" r="16" stroke="white" stroke-width="5" fill="none"/>
  <circle cx="28" cy="58" r="4" fill="white"/>
  <!-- Front wheel -->
  <circle cx="93" cy="58" r="16" stroke="white" stroke-width="5" fill="none"/>
  <circle cx="93" cy="58" r="4" fill="white"/>

  </g>
</svg>